<?xml version="1.0" standalone="no"?><!DOCTYPE svg PUBLIC "-//W3C//DTD SVG 1.1//EN" "http://www.w3.org/Graphics/SVG/1.1/DTD/svg11.dtd"><svg t="1652704601641" class="icon" viewBox="0 0 1024 1024" version="1.1" xmlns="http://www.w3.org/2000/svg" p-id="26199" xmlns:xlink="http://www.w3.org/1999/xlink" width="200" height="200"><defs><style type="text/css"></style></defs><path d="M370.602667 170.666667l111.232-111.232a42.666667 42.666667 0 0 1 60.330666 0L653.397333 170.666667H810.666667a42.666667 42.666667 0 0 1 42.666666 42.666666v157.269334l111.232 111.232a42.666667 42.666667 0 0 1 0 60.330666L853.333333 653.397333V810.666667a42.666667 42.666667 0 0 1-42.666666 42.666666h-157.269334l-111.232 111.232a42.666667 42.666667 0 0 1-60.330666 0L370.602667 853.333333H213.333333a42.666667 42.666667 0 0 1-42.666666-42.666666v-157.269334l-111.232-111.232a42.666667 42.666667 0 0 1 0-60.330666L170.666667 370.602667V213.333333a42.666667 42.666667 0 0 1 42.666666-42.666666h157.269334zM512 640a128 128 0 1 0 0-256 128 128 0 0 0 0 256z" p-id="26200"></path></svg>