<?xml version="1.0" standalone="no"?><!DOCTYPE svg PUBLIC "-//W3C//DTD SVG 1.1//EN" "http://www.w3.org/Graphics/SVG/1.1/DTD/svg11.dtd"><svg t="1655109514960" class="icon" viewBox="0 0 1024 1024" version="1.1" xmlns="http://www.w3.org/2000/svg" p-id="428769" xmlns:xlink="http://www.w3.org/1999/xlink" width="128" height="128"><defs><style type="text/css"></style></defs><path d="M170.666667 42.666667c-47.36 0-85.333333 37.973333-85.333334 85.333333v170.666667c0 47.36 37.973333 85.333333 85.333334 85.333333H42.666667v85.333333h512V384h-128c47.36 0 85.333333-37.973333 85.333333-85.333333V128c0-47.36-37.973333-85.333333-85.333333-85.333333H170.666667m0 85.333333h256v170.666667H170.666667V128m-42.666667 384v85.333333h85.333333v-85.333333H128m469.333333 42.666667c-47.36 0-85.333333 37.973333-85.333333 85.333333v170.666667c0 47.36 37.973333 85.333333 85.333333 85.333333h-128v85.333333h512v-85.333333h-128c47.36 0 85.333333-37.973333 85.333334-85.333333v-170.666667c0-47.36-37.973333-85.333333-85.333334-85.333333h-256M128 640v85.333333h85.333333v-85.333333H128m469.333333 0h256v170.666667h-256v-170.666667M128 768v85.333333h85.333333v-85.333333H128m128 0v85.333333h85.333333v-85.333333H256m128 0v85.333333h85.333333v-85.333333H384z" fill="" p-id="428770"></path></svg>