<?xml version="1.0" standalone="no"?><!DOCTYPE svg PUBLIC "-//W3C//DTD SVG 1.1//EN" "http://www.w3.org/Graphics/SVG/1.1/DTD/svg11.dtd"><svg t="1655459311124" class="icon" viewBox="0 0 1024 1024" version="1.1" xmlns="http://www.w3.org/2000/svg" p-id="54885" xmlns:xlink="http://www.w3.org/1999/xlink" width="128" height="128"><defs><style type="text/css"></style></defs><path d="M512 128C323.413333 128 170.666667 204.373333 170.666667 298.666667s152.746667 170.666667 341.333333 170.666666 341.333333-76.373333 341.333333-170.666666-152.746667-170.666667-341.333333-170.666667M170.666667 384v128c0 94.293333 152.746667 170.666667 341.333333 170.666667s341.333333-76.373333 341.333333-170.666667V384c0 94.293333-152.746667 170.666667-341.333333 170.666667s-341.333333-76.373333-341.333333-170.666667m0 213.333333v128c0 94.293333 152.746667 170.666667 341.333333 170.666667s341.333333-76.373333 341.333333-170.666667v-128c0 94.293333-152.746667 170.666667-341.333333 170.666667s-341.333333-76.373333-341.333333-170.666667z" fill="" p-id="54886"></path></svg>