<?xml version="1.0" standalone="no"?><!DOCTYPE svg PUBLIC "-//W3C//DTD SVG 1.1//EN" "http://www.w3.org/Graphics/SVG/1.1/DTD/svg11.dtd"><svg t="1655109540887" class="icon" viewBox="0 0 1024 1024" version="1.1" xmlns="http://www.w3.org/2000/svg" p-id="428923" xmlns:xlink="http://www.w3.org/1999/xlink" width="128" height="128"><defs><style type="text/css"></style></defs><path d="M810.666667 128a85.333333 85.333333 0 0 1 85.333333 85.333333v597.333334a85.333333 85.333333 0 0 1-85.333333 85.333333H213.333333a85.333333 85.333333 0 0 1-85.333333-85.333333V213.333333a85.333333 85.333333 0 0 1 85.333333-85.333333h597.333334m-98.133334 270.933333c9.386667-8.96 9.386667-23.893333 0-32.853333L657.92 311.466667a22.698667 22.698667 0 0 0-32.853333 0l-42.666667 42.666666 87.466667 87.466667 42.666666-42.666667M298.666667 637.44V725.333333h87.893333l258.56-258.56-87.893333-87.893333L298.666667 637.44z" fill="" p-id="428924"></path></svg>