<?xml version="1.0" standalone="no"?><!DOCTYPE svg PUBLIC "-//W3C//DTD SVG 1.1//EN" "http://www.w3.org/Graphics/SVG/1.1/DTD/svg11.dtd"><svg t="1634797074113" class="icon" viewBox="0 0 1024 1024" version="1.1" xmlns="http://www.w3.org/2000/svg" p-id="53794" xmlns:xlink="http://www.w3.org/1999/xlink" width="200" height="200"><defs><style type="text/css"></style></defs><path d="M131.712 384h760.576a42.666667 42.666667 0 0 1 42.538667 46.208l-35.584 426.666667a42.666667 42.666667 0 0 1-42.496 39.125333H167.253333a42.666667 42.666667 0 0 1-42.496-39.125333l-35.584-426.666667A42.666667 42.666667 0 0 1 131.712 384zM206.506667 810.666667h610.986666l28.416-341.333334H178.090667l28.416 341.333334z m365.824-597.333334H853.333333a42.666667 42.666667 0 0 1 42.666667 42.666667v42.666667H128V170.666667a42.666667 42.666667 0 0 1 42.666667-42.666667h316.330666l85.333334 85.333333z" p-id="53795"></path></svg>